<svg xmlns="http://www.w3.org/2000/svg" viewBox="0 0 510.79 634.02">
  <defs>
    <style>
      .cls-1 {
        fill: #fff;
      }
    </style>
  </defs>
  <g id="Layer_2" data-name="Layer 2">
    <path class="cls-1" d="M286,292l147-30s95.36,49.33,160,173c69,132,23,237,13,249s-93,38-239.83,37.87C279,721.79,165,716,121.23,609.17,111.48,585.38,144,460,188,393,219.21,345.48,276,294,286,292Z" transform="translate(-119.49 -87.85)"/>
  </g>
  <g id="Layer_3" data-name="Layer 3">
    <path class="cls-1" d="M423,252,276,282s-6-18-15-24-60.65-20-93.83-6-18-52.62,0-81.3C194,128,223.2,148.06,296,104c38-23,63-17,69-9C365,95,421,185,423,252Z" transform="translate(-119.49 -87.85)"/>
  </g>
</svg>
