<svg id="Layer_1" data-name="Layer 1" xmlns="http://www.w3.org/2000/svg" viewBox="0 0 604.4 603.4">
  <defs>
    <style>
      .cls-1 {
        fill: #fff;
        stroke: #fff;
        stroke-miterlimit: 10;
        stroke-width: 28px;
      }
    </style>
  </defs>
  <g id="Layer_2" data-name="Layer 2">
    <path class="cls-1" d="M356.85,254s90.67-76.18,75-133c-17.34-62.87-150.38-107-132-107,236.55-.15,216,261,79,307C255.76,362.33,356.85,254,356.85,254Z" transform="translate(0 0)"/>
  </g>
  <g id="Layer_3" data-name="Layer 3">
    <path class="cls-1" d="M350.4,350.85s76.18,90.67,133,75c62.87-17.34,107-150.39,107-132,.15,236.54-261,216-307,79C242.08,249.76,350.4,350.85,350.4,350.85Z" transform="translate(0 0)"/>
  </g>
  <g id="Layer_4" data-name="Layer 4">
    <path class="cls-1" d="M247.56,349.4s-90.67,76.18-75,133c17.34,62.87,150.38,107,132,107-236.55.15-216-261-79-307C348.64,241.07,247.56,349.4,247.56,349.4Z" transform="translate(0 0)"/>
  </g>
  <g id="Layer_5" data-name="Layer 5">
    <path class="cls-1" d="M254,246.55s-76.17-90.67-133-75c-62.87,17.34-107,150.39-107,132-.14-236.54,261-216,307-79C362.33,347.64,254,246.55,254,246.55Z" transform="translate(0 0)"/>
  </g>
  <g id="Layer_6" data-name="Layer 6">
    <circle class="cls-1" cx="283.85" cy="298" r="41"/>
  </g>
  <g id="Layer_7" data-name="Layer 7">
    <path class="cls-1" d="M502.71,271.52a50.33,50.33,0,0,1,16.07-21c12.53-9.65,30.36-25.27,28-47.11-2.89-26.93-23-75.55-16.38-71.78,85,48.37,37.44,124-1.69,153.22C503.26,303.85,498.08,283,502.71,271.52Z" transform="translate(0 0)"/>
  </g>
  <g id="Layer_8" data-name="Layer 8">
    <path class="cls-1" d="M330,488.18a50.45,50.45,0,0,1,21,16.07c9.64,12.53,25.27,30.35,47.11,28,26.92-2.88,75.55-23,71.77-16.38-48.37,85-124,37.45-153.21-1.68C297.66,488.73,318.47,483.54,330,488.18Z" transform="translate(0 0)"/>
  </g>
  <g id="Layer_9" data-name="Layer 9">
    <path class="cls-1" d="M99.33,313.45a50.33,50.33,0,0,1-16.07,21c-12.53,9.65-30.36,25.27-28,47.12,2.89,26.92,23,75.54,16.38,71.77-85-48.37-37.44-124,1.69-153.22C98.77,281.12,104,301.94,99.33,313.45Z" transform="translate(0 0)"/>
  </g>
  <g id="Layer_10" data-name="Layer 10">
    <path class="cls-1" d="M285.06,100.79a50.33,50.33,0,0,1-21-16.07c-9.64-12.52-25.27-30.35-47.11-28C190,59.6,141.4,79.72,145.18,73.1c48.37-85,124-37.45,153.21,1.68C317.38,100.24,296.57,105.43,285.06,100.79Z" transform="translate(0 0)"/>
  </g>
</svg>
